<svg width="1280" height="640" viewBox="0 0 1280 640" fill="none" xmlns="http://www.w3.org/2000/svg" role="img">
  <title>Shell Skill Kit social preview</title>
  <desc>Brand preview for Shell Skill Kit, a test-enforced shell rule pack for AI coding agents.</desc>
  <rect width="1280" height="640" fill="#0B1020"/>
  <path d="M0 104H1280" stroke="#132033" stroke-width="1"/>
  <path d="M0 536H1280" stroke="#132033" stroke-width="1"/>
  <path d="M96 0V640" stroke="#132033" stroke-width="1"/>
  <path d="M1184 0V640" stroke="#132033" stroke-width="1"/>
  <g opacity="0.58">
    <path d="M792 186H1102" stroke="#1F2A44" stroke-width="14" stroke-linecap="round"/>
    <path d="M792 242H1038" stroke="#1F2A44" stroke-width="14" stroke-linecap="round"/>
    <path d="M792 298H1124" stroke="#1F2A44" stroke-width="14" stroke-linecap="round"/>
    <path d="M792 354H990" stroke="#1F2A44" stroke-width="14" stroke-linecap="round"/>
    <path d="M792 410H1078" stroke="#1F2A44" stroke-width="14" stroke-linecap="round"/>
  </g>
  <g transform="translate(128 202) scale(1.42)">
    <path d="M26 26 L94 26 L94 62 C94 88 78 106 60 116 C42 106 26 88 26 62 Z" fill="#0D9488" stroke="#2DD4BF" stroke-width="2.8" stroke-linejoin="round"/>
    <polyline points="49,49 64,63 49,77" fill="none" stroke="#ECFEFF" stroke-width="8" stroke-linecap="round" stroke-linejoin="round"/>
    <rect x="70" y="70" width="17" height="7" rx="2" fill="#ECFEFF"/>
    <circle cx="50" cy="94" r="3.2" fill="#CCFBF1"/>
    <circle cx="60" cy="94" r="3.2" fill="#CCFBF1"/>
    <circle cx="70" cy="94" r="3.2" fill="#CCFBF1"/>
  </g>
  <path d="M320 238H424" stroke="#2DD4BF" stroke-width="5" stroke-linecap="round"/>
  <text x="320" y="326" fill="#F8FAFC" font-family="Inter, ui-sans-serif, system-ui, -apple-system, BlinkMacSystemFont, 'Segoe UI', sans-serif" font-size="84" font-weight="800" letter-spacing="0">Shell Skill Kit</text>
  <text x="322" y="384" fill="#C7D2FE" font-family="Inter, ui-sans-serif, system-ui, -apple-system, BlinkMacSystemFont, 'Segoe UI', sans-serif" font-size="30" font-weight="650" letter-spacing="0">test-enforced shell rules for AI coding agents</text>
  <g transform="translate(322 430)" font-family="Inter, ui-sans-serif, system-ui, -apple-system, BlinkMacSystemFont, 'Segoe UI', sans-serif" font-size="24" font-weight="700">
    <text x="0" y="0" fill="#2DD4BF">Bash</text>
    <text x="84" y="0" fill="#94A3B8">Zsh</text>
    <text x="148" y="0" fill="#F59E0B">POSIX sh</text>
    <text x="272" y="0" fill="#94A3B8">Nushell</text>
    <text x="394" y="0" fill="#2DD4BF">ShellCheck</text>
    <text x="550" y="0" fill="#94A3B8">Codex</text>
  </g>
</svg>
